<svg width="45" height="45" fill="none" xmlns="http://www.w3.org/2000/svg"><path d="M22.837 17.212a5.625 5.625 0 1 1-5.625 5.625 5.632 5.632 0 0 1 5.625-5.625Zm0-2.812a8.437 8.437 0 1 0 0 16.875 8.437 8.437 0 0 0 0-16.875ZM7.585 9.58l1.989-1.99 4.93 4.931-1.988 1.989-4.93-4.93ZM2.813 21.1h7.03v2.813h-7.03v-2.812Zm4.772 14.333 4.93-4.93 1.99 1.99-4.931 4.929-1.989-1.989Zm13.509-.27h2.812v7.032h-2.812v-7.032Zm9.403-2.67 1.989-1.99 4.93 4.93-1.988 1.989-4.93-4.93ZM35.156 21.1h7.032v2.813h-7.032v-2.812Zm-4.659-8.579 4.93-4.93 1.99 1.99-4.931 4.929-1.989-1.989ZM21.094 2.82h2.812v7.03h-2.812V2.82Z" fill="#fff"/></svg>