<svg width="50" height="40" fill="none" xmlns="http://www.w3.org/2000/svg"><path d="M20.45.26c-1.358.437-2.504 1.217-2.79 1.896l-.12.286-1.884-.009-.244-.503c-.187-.383-.349-.56-.686-.743l-.44-.241h-3.18c-4.171 0-4.697.207-4.697 1.858v.464l-.71.347C3.085 4.892 1.036 7.416.227 10.355l-.226.82v10.083c0 11.012-.033 10.3.547 11.859 1.301 3.492 4.316 6.018 8.002 6.709 1.24.232 31.662.232 32.902 0 3.686-.69 6.701-3.216 8.002-6.71.58-1.558.547-.846.547-11.858V11.175l-.217-.772c-1.134-4.038-4.04-6.791-8.149-7.724-.614-.14-1.42-.174-4.958-.21l-4.223-.045-.116-.277C32.05 1.466 30.82.646 29.467.233c-1.068-.325-7.991-.305-9.016.026Zm19.61 5.562c2.993.304 5.326 2.13 6.338 4.965l.275.772.028 9.312c.032 10.648.064 10.15-.777 11.863-.948 1.928-2.86 3.386-4.995 3.811-1.143.228-30.718.228-31.858 0-2.155-.43-4.06-1.917-5.062-3.95-.764-1.552-.742-1.188-.71-11.724l.028-9.312.304-.843c.977-2.7 3.365-4.6 6.143-4.887 1.185-.122 29.078-.13 30.286-.008v.001ZM9.517 6.888c-3.138.454-5.163 3.006-5.163 6.51v1.297h6.712l.225-.458c.993-2.025 2.993-4.22 5.145-5.65.804-.535 2.925-1.61 3.175-1.61.058 0 .105-.044.105-.098 0-.118-9.37-.111-10.199.008v.001Zm20.767-.033c0 .045.165.14.367.21 3.07 1.064 6.811 4.405 8.088 7.221l.186.41h6.722V13.4c0-3.27-1.513-5.415-4.5-6.382-.589-.19-10.862-.343-10.862-.161l-.001-.001Zm-6.213.663c-11.405 1.098-16.939 13.457-9.978 22.28 7.696 9.753 23.784 4.904 24.793-7.474.675-8.29-6.633-15.593-14.815-14.806Zm2.593 3.427c6.569.93 10.664 8.018 8.164 14.132-2.88 7.045-12.12 8.85-17.414 3.403-7.023-7.226-.832-18.961 9.25-17.535Zm-2.792 1.627c-5.91.823-9.319 6.775-6.983 12.198 2.68 6.224 11.672 6.996 15.487 1.33 4.175-6.2-1.081-14.56-8.504-13.528Zm3.845 1.338c1.141.35 1.995 1.167 2.015 1.927.046 1.752-3.503 1.696-4.69-.073-.903-1.345.705-2.459 2.675-1.854ZM22.7 27.255c1.081.226 2.691 1.2 2.691 1.63 0 1.002-3.634.354-4.695-.836-.733-.825.16-1.178 2.004-.794ZM41.913 31c-2.02.618-1.628 3.387.477 3.38 2.14-.006 2.3-3.116.174-3.406-.215-.03-.508-.017-.651.027Z" fill="#BDAE82"/></svg>