<svg version="1.0" xmlns="http://www.w3.org/2000/svg" width="1394.667" height="1706.667" viewBox="0 0 1046 1280"><path d="M529 .7c-63 4.4-122.8 22.2-194.2 57.9-46.1 23-105 54.2-118.5 62.6-13.2 8.2-15.5 10.2-33.5 28.1-21.2 21.2-40.3 38.9-57.3 53.2-9.9 8.2-12.2 10.9-21 23.6-5.4 7.9-11.1 16-12.6 17.9-2.8 3.7-31.4 52.7-39.1 67C32.7 348.4 16 400.7 8.5 448.9 2 490.9.5 518.7.6 594c0 68.5.9 88.4 4.5 100.6 1.1 3.8 2.6 12.3 3.4 18.9 2.2 18.7 12.7 58.2 22.3 84 1.6 4.4 6 14.7 9.7 23 3.7 8.2 16.1 36.7 27.5 63.3L88.8 932l8.5 9.3c4.6 5 16.4 18.6 26.1 30.2 24.5 29 40.9 46.6 60.4 64.8 70.4 65.4 124.1 99.9 198.7 127.5 36.9 13.6 77.3 25.4 113 32.9 12 2.5 14.8 2.8 36.1 2.8h23.2l20.4 26.5c11.2 14.6 24 32.4 28.6 39.6l8.2 13.2 21.8.7c35.3 1.2 52.2-.5 58-5.8 1.2-1.1 2.8-3.8 3.4-6l1.2-3.9 4.4.6c8.7 1.2 12.8-.8 22.6-10.7l8.9-9.1 20.1-3.3c11.1-1.9 20.4-3.7 20.7-4.1.3-.4 1.8-8.6 3.2-18.2 2.2-14 8.4-40.7 13.2-56.1.4-1.2 4.4-2.6 13.6-4.8 14.4-3.5 23.7-7.6 34.4-15.1 9.1-6.3 33.6-20.2 39.9-22.5 5.1-1.8 25.3-15 42.1-27.5 12.7-9.4 45.9-38.7 59.2-52.2 11.1-11.3 14.3-16 27.5-41.3 4.9-9.4 13.2-23.3 18.4-31 11.2-16.5 21.4-36.4 21.4-41.8 0-2.1-.2-3.7-.5-3.7-.2 0-7.1 4.3-15.2 9.7-49.1 32-90.4 57.7-104.3 64.8-20.1 10.2-33 14.9-69.7 25.4-7.8 2.3-14.6 4.1-15.1 4.1s2-9.3 5.5-20.8c20.1-65.2 25.4-90.9 35.8-174.2 2-15.7 4.5-34.4 5.6-41.5 1.9-11.7 2-15.7 1.5-39.5-1.8-74.5-5.4-114.6-13.7-151.7-3.8-16.8-19.9-65-34.2-102.4l-4.4-11.6 14.9-19.8 14.8-19.8v-6.1c0-9-1.9-33.2-3.1-40.1-1.4-8.2-4.6-18.1-7.7-23.5-2.8-5-18-24-27.1-34l-5.9-6.5 6.8-7c5.2-5.3 10.9-13.3 22.9-32.5 8.8-14 15.8-25.6 15.7-25.8-.2-.1-17.6 7.9-38.7 17.9l-38.4 18.2-8-1.7c-28.3-6.1-44.9-6-95 .4-31.1 3.9-33.6 4.1-42.7 3-19.7-2.3-30.9-6.7-47.3-18.8-16.8-12.4-21.2-14.5-31.8-15l-8.8-.4 2 4.8c11.9 30 14.8 36.2 22.8 47.8l5.4 7.9-2.3 1.5c-4.2 2.9-12 10.6-23.6 23.1l-11.4 12.5.5 23c.7 30.5 2.4 37.5 13.9 56.9 3.8 6.5 5.8 11 5.8 13 0 2.4-2.6 6.9-10.1 17.7-12.1 17.3-17.4 28.1-26.7 54-19 52.8-25.5 81.2-33.7 147.5-2.2 17.7-5.3 55.1-7.7 91.5-1.7 26.2-1.7 110.3 0 127.5 3.3 33.6 12.5 89.6 17.1 104.5 1.1 3.5 1.9 6.6 1.6 6.8-1.1 1.1-21.5-5.6-31-10.2-23.8-11.5-43.6-25.1-62.3-42.9-12.9-12.2-26.1-22.1-43.2-32.1-4.8-2.8-7-4.7-8.3-7.5-.9-2.1-6.5-9.4-12.3-16.2-29.3-34.3-64.6-86.4-81.9-120.9-23.1-46.1-37.1-93.3-46-155.5-8.9-62.2-9.1-112.9-.4-164 6-35.5 25.5-105.5 37.2-133.5 9.6-23 41.6-71.3 66.7-100.4 29.4-34.3 82.5-81.3 126.3-111.9 24.7-17.2 60.5-30.9 118.2-45.2 48.6-12.1 73-14.9 135-16 36.9-.6 61.7-1.7 90.5-4.1 37.8-3.1 51-6.3 51-12.4 0-1-1.7-3.6-3.7-5.9-3.1-3.4-6.3-5.2-16.3-9.5-14.8-6.3-20.8-8.1-31.5-9.5C783.8 14 675.2 5.5 634 3 588 .3 547.1-.6 529 .7z"/></svg>