<svg width="41" height="40" fill="none" xmlns="http://www.w3.org/2000/svg"><path d="M21.453 40c-5.746 0-11.138-2.183-15.182-6.145C2.227 29.892 0 24.607 0 18.976c0-3.885 1.097-7.694 3.171-11.004a21.292 21.292 0 0 1 8.58-7.75 2.115 2.115 0 0 1 2.28.255c.313.258.541.6.657.984a2 2 0 0 1-.007 1.174 17.991 17.991 0 0 0-.287 9.842 18.254 18.254 0 0 0 4.947 8.569 18.63 18.63 0 0 0 6.067 3.993 18.93 18.93 0 0 0 7.168 1.394 19.074 19.074 0 0 0 5.55-.82c.391-.118.808-.12 1.2-.007.392.113.74.336 1.003.643a2.001 2.001 0 0 1 .26 2.236 21.19 21.19 0 0 1-7.907 8.407A21.778 21.778 0 0 1 21.452 40ZM11.676 3.314a18.447 18.447 0 0 0-6.575 6.68 17.99 17.99 0 0 0-2.38 8.982c0 10.122 8.403 18.357 18.732 18.357 3.21.009 6.366-.795 9.166-2.332a18.486 18.486 0 0 0 6.815-6.444 21.924 21.924 0 0 1-4.858.543 21.683 21.683 0 0 1-8.21-1.596 21.336 21.336 0 0 1-6.949-4.572 20.93 20.93 0 0 1-5.464-9.08 20.61 20.61 0 0 1-.277-10.538Z" fill="#1C1C1C"/></svg>