<svg width="62" height="50" fill="none" xmlns="http://www.w3.org/2000/svg"><g clip-path="url(#a)"><path d="M30.897 50.036H6.505l-.09.001A6.415 6.415 0 0 1 0 43.622l.001-.095v.005c.071-9.435.071-18.877 0-28.324v-.036a6.433 6.433 0 0 1 6.433-6.433h48.981a6.147 6.147 0 0 1 6.414 6.447l.001-.014v28.36a6.147 6.147 0 0 1-6.447 6.504l.015.001-24.501-.001Zm0-6.165.143.001c7.974 0 14.439-6.465 14.439-14.439S39.014 14.994 31.04 14.994c-7.962 0-14.418 6.444-14.439 14.4v.002c.049 7.885 6.387 14.273 14.248 14.403h.012l.036.072ZM12.384 19.049a2.11 2.11 0 0 0-2.071-2.037h-.002a2.055 2.055 0 1 0 0 4.11 2.11 2.11 0 0 0 2.073-2.071v-.002ZM42.28 6.165H19.532c.357-1.43.679-2.806 1.036-4.182a2.163 2.163 0 0 1 2.55-1.98L23.105 0h15.833a2.074 2.074 0 0 1 2.286 1.776l.001.011c.34 1.287.661 2.573.983 3.86.036.161.036.322.071.518h.001Z" fill="#CCBA8D"/><path d="M30.861 43.799c-7.959-.021-14.402-6.477-14.402-14.439 0-7.974 6.465-14.439 14.439-14.439s14.439 6.465 14.439 14.439l-.001.151v-.008c-.121 7.909-6.551 14.277-14.473 14.296h-.002Zm0-4.128c5.695 0 10.311-4.616 10.311-10.311s-4.616-10.311-10.311-10.311c-5.682 0-10.291 4.596-10.311 10.273v.074c0 5.675 4.6 10.275 10.275 10.275l.113-.001h-.006l-.071.001Z" fill="#CCBA8D"/><path d="M12.384 19.049a2.11 2.11 0 0 1-2.034 2.073h-.004a2.055 2.055 0 1 1 0-4.11 2.11 2.11 0 0 1 2.037 2.034v.004l.001-.001Z" fill="#BDAE82"/><path d="M31.129 21.14c4.378.144 7.89 3.661 8.023 8.03v.012a2.127 2.127 0 0 1-1.996 2.252h-.024a2.073 2.073 0 0 1-2.073-2.073 4.2 4.2 0 0 0-4.087-4.128h-.006l-.056.001a2.037 2.037 0 0 1-2.037-2.037l.002-.095v.004a2.075 2.075 0 0 1 2.26-1.966h-.008.002Z" fill="#CCBA8D"/></g><defs><clipPath id="a"><path fill="#fff" d="M0 0h62v50H0z"/></clipPath></defs></svg>