<svg width="32" height="50" fill="none" xmlns="http://www.w3.org/2000/svg"><path d="M4.371 50v-2.898h10.216V40.93C6.391 40.113.038 33.272 0 24.938v-.004h2.881a13.08 13.08 0 0 0 5.526 10.647l.041.027a12.547 12.547 0 0 0 7.511 2.474c.237 0 .473-.007.708-.019l-.033.001c6.993-.339 12.543-6.06 12.606-13.091v-.006h2.898v.111a15.68 15.68 0 0 1-4.233 10.737l.008-.009a15.886 15.886 0 0 1-10.268 5.12l-.063.005v6.09h10.249v2.947L4.371 50Z" fill="#CCBA8D"/><path d="M26.326 11.706v4.404H19.04v2.914h7.269v4.388h-7.253v2.947h7.138c-.719 5.01-4.982 8.818-10.134 8.818s-9.415-3.808-10.128-8.763l-.006-.055h7.171v-2.898H5.861v-4.404h7.236v-2.931H5.861v-4.371h7.236V8.792H5.959C6.724 3.832 10.963.078 16.078.078c5.109 0 9.344 3.745 10.109 8.64l.007.058h-7.155v2.931l7.287-.001Z" fill="#BDAE82"/></svg>