<svg width="66" height="50" fill="none" xmlns="http://www.w3.org/2000/svg"><path d="M0 48.503V1.497A2.397 2.397 0 0 1 2.399 0h-.008 61.336a2.248 2.248 0 0 1 2.427 2.436l.001-.008v45.327a1.99 1.99 0 0 1-1.978 2.211l-.09-.002h.004H2.645a2.533 2.533 0 0 1-2.64-1.444l-.007-.016.002-.002Zm62.066-44.36H4.125v27.949l.639-.438 11.227-8.05a2.184 2.184 0 0 1 1.552-.644c.607 0 1.155.246 1.552.644l11.793 8.452c1.825 1.314 3.651 2.629 5.476 3.907a1.99 1.99 0 0 0 3.118-1.008l.004-.014a2.06 2.06 0 0 0-.975-2.368l-.01-.005a380.063 380.063 0 0 1-7.466-5.385l-.566-.42.329-.256 10.168-7.302a2.184 2.184 0 0 1 1.552-.644c.607 0 1.155.246 1.552.644l17.342 12.45.639.42.015-27.931Z" fill="#BDAE82"/><path d="M26.962 9.346a5.476 5.476 0 0 1 5.476 5.476 5.476 5.476 0 1 1-10.801-.033l-.005.032v-.002a5.476 5.476 0 0 1 5.323-5.474h.008l-.001.001Z" fill="#CCBA8D"/></svg>