<svg width="130" height="130" fill="none" xmlns="http://www.w3.org/2000/svg"><path d="M58.521.136c-.5.12-2.951.55-5.448.955C6.174 8.698-16.008 65.904 13.026 104.367c9.042 11.977 29.806 25.539 30.835 20.139.129-.674-1.108-1.528-4.176-2.882-12.586-5.559-23.975-16.512-30.19-29.03-22.57-45.466 16.045-96.917 66.47-88.565 7.575 1.255 8.89-1.361 1.467-2.918C74.053.403 60.344-.304 58.52.136Zm.303 13.407c-8.868 1.306-20.279 5.847-20.279 8.068 0 1.724 1.281 1.59 5.961-.62 25.636-12.113 56.848 1.14 66.134 28.08 15.435 44.781-35.52 82.689-74.213 55.208-21.5-15.27-26.459-45.6-11.024-67.44 4.096-5.795 1.94-8.245-2.242-2.547-25.769 35.105 1.135 84.69 44.61 82.215 43.887-2.499 64.87-55.086 34.67-86.888-11.072-11.658-28.932-18.241-43.617-16.078v.002Zm52.764 7.906c-.9.9-.212 2.511 2.669 6.255 21.363 27.754 14.369 69.239-14.963 88.756-13.217 8.795-24.822 11.232-46.523 9.773-2.044-.137-2.422.019-2.422 1.004 0 4.474 25.975 3.261 38.854-1.815 37.765-14.883 52.655-62.927 29.891-96.448-4.32-6.36-6.492-8.539-7.506-7.525ZM47.265 44.11c-1.074 1.185-1.166 2.576-1.33 20.092-.27 28.797-3.137 27.926 31.634 9.608 16.945-8.928 17.04-8.648-7.263-21.397-19.002-9.967-20.911-10.656-23.041-8.303Zm20.999 10.894c18.462 9.643 18.558 9.703 17.267 10.775C84.083 66.982 51.16 84 50.285 84c-.704 0-.844-3.165-.844-19.068 0-13.375.198-19.068.661-19.068.363 0 8.537 4.114 18.162 9.141Z" fill="#fff"/></svg>