<svg width="32" height="27" fill="none" xmlns="http://www.w3.org/2000/svg"><g filter="url(#a)"><path d="M29.333 2.84c-1 .493-2 .667-3.173.827 1.173-.667 2-1.667 2.333-3a10.756 10.756 0 0 1-3.423 1.322l-.07.012A5.795 5.795 0 0 0 21.004.334H21c-2.84 0-5.333 2.507-5.333 5.507 0 .493 0 .827.173 1.16A15.317 15.317 0 0 1 4.529 1.362l-.022-.028a5.012 5.012 0 0 0-.666 2.855l-.001-.015a5.466 5.466 0 0 0 2.473 4.481l.021.013c-.84 0-1.667-.333-2.507-.667 0 2.667 1.84 4.84 4.333 5.333-.493.173-1 .173-1.493.173-.333 0-.667 0-1-.173.667 2.173 2.667 3.84 5.173 3.84a10.535 10.535 0 0 1-6.637 2.335l-.213-.002h.011-1.333c2.365 1.509 5.236 2.429 8.316 2.493h.017c10 0 15.507-8.333 15.507-15.507v-.667a9.777 9.777 0 0 0 2.803-2.944l.024-.042h-.002Z" fill="#fff"/></g><defs><filter id="a" x="-1.332" y=".334" width="34.667" height="29.666" filterUnits="userSpaceOnUse" color-interpolation-filters="sRGB"><feFlood flood-opacity="0" result="BackgroundImageFix"/><feColorMatrix in="SourceAlpha" values="0 0 0 0 0 0 0 0 0 0 0 0 0 0 0 0 0 0 127 0" result="hardAlpha"/><feOffset dy="4"/><feGaussianBlur stdDeviation="2"/><feComposite in2="hardAlpha" operator="out"/><feColorMatrix values="0 0 0 0 0 0 0 0 0 0 0 0 0 0 0 0 0 0 0.25 0"/><feBlend in2="BackgroundImageFix" result="effect1_dropShadow_10_11"/><feBlend in="SourceGraphic" in2="effect1_dropShadow_10_11" result="shape"/></filter></defs></svg>