<svg width="68" height="58" fill="none" xmlns="http://www.w3.org/2000/svg"><g clip-path="url(#a)" filter="url(#b)"><g filter="url(#c)"><path d="M63.843 1.307v47.474a2.268 2.268 0 0 1-2.221 1.254l.008.001H6.194A1.986 1.986 0 0 1 4 47.831l-.001.009V2.161A1.986 1.986 0 0 1 6.185.002L6.176.001h55.436a2.145 2.145 0 0 1 2.225 1.292l.006.014ZM26.544 24.983v5.592c.001.366.052.72.146 1.056l-.007-.028a2.392 2.392 0 0 0 2.226 1.525c.51 0 .983-.16 1.371-.433l-.008.005c3.328-1.916 6.62-3.85 9.913-5.801a2.144 2.144 0 0 0 .011-3.775l-.011-.006c-3.293-2.021-6.672-3.955-10.052-5.906a2.369 2.369 0 0 0-3.605 2.167v-.007c.122 1.864.017 3.746.017 5.61l-.001.001ZM13.443 6.551V3.572H7.572v2.979h5.871ZM7.484 46.376h5.958v-2.927H7.484v2.927ZM22.833 3.571h-5.767v2.962h5.767V3.571Zm3.623 0v2.962h5.784V3.484l-5.784.087Zm15.157 2.98V3.572h-5.767v2.962l5.767.017Zm9.425-2.98h-5.819v2.962h5.819V3.571Zm-9.407 42.823v-2.84h-5.784v2.927l5.784-.087Zm-18.816 0v-2.84h-5.767v2.927l5.767-.087Zm9.425 0v-2.84h-5.767v2.944l5.767-.104Zm18.798-2.945h-5.819v2.927h5.819v-2.927Zm9.251-36.898V3.485h-5.662v3.066h5.662Zm0 36.898h-5.662v2.944h5.679l-.017-2.944Z" fill="#BDAE82"/></g></g><defs><filter id="b" x="0" y="0" width="68" height="58" filterUnits="userSpaceOnUse" color-interpolation-filters="sRGB"><feFlood flood-opacity="0" result="BackgroundImageFix"/><feColorMatrix in="SourceAlpha" values="0 0 0 0 0 0 0 0 0 0 0 0 0 0 0 0 0 0 127 0" result="hardAlpha"/><feOffset dy="4"/><feGaussianBlur stdDeviation="2"/><feComposite in2="hardAlpha" operator="out"/><feColorMatrix values="0 0 0 0 0 0 0 0 0 0 0 0 0 0 0 0 0 0 0.25 0"/><feBlend in2="BackgroundImageFix" result="effect1_dropShadow_6_144"/><feBlend in="SourceGraphic" in2="effect1_dropShadow_6_144" result="shape"/></filter><filter id="c" x="-.013" y="-.014" width="67.856" height="58.062" filterUnits="userSpaceOnUse" color-interpolation-filters="sRGB"><feFlood flood-opacity="0" result="BackgroundImageFix"/><feColorMatrix in="SourceAlpha" values="0 0 0 0 0 0 0 0 0 0 0 0 0 0 0 0 0 0 127 0" result="hardAlpha"/><feOffset dy="4"/><feGaussianBlur stdDeviation="2"/><feComposite in2="hardAlpha" operator="out"/><feColorMatrix values="0 0 0 0 0 0 0 0 0 0 0 0 0 0 0 0 0 0 0.25 0"/><feBlend in2="BackgroundImageFix" result="effect1_dropShadow_6_144"/><feBlend in="SourceGraphic" in2="effect1_dropShadow_6_144" result="shape"/></filter><clipPath id="a"><path fill="#fff" transform="translate(4)" d="M0 0h60v50H0z"/></clipPath></defs></svg>